# xmcd
#
# Track frame offsets:
#  150
#  11174
#  22283
#  33409
#  47608
#  58229
#  71701
#  79971
#  92522
#  99739
#  113538
#  128017
#  138596
#  150910
#  162448
#  172999
#  187522
#  195105
#
# Disc length: 2796 seconds
#
# Revision: 0
# Processed by: cddbd v1.5.1PL0 Copyright (c) Steve Scherf et al.
# Submitted via: Collectorz.com Music Collector 6.9
#
DISCID=e20aea12
DTITLE=Various Artist - Country Gentlemen
DYEAR=2004
DGENRE=Country
TTITLE0=Hank Williams - I'll Never Get Out of This World Alive
TTITLE1=Don Williams - Story Book Children
TTITLE2=Porter Wagoner - Angel Band
TTITLE3=Conway Twitty - You're Never Been This Far Before
TTITLE4=Ernest Tubb - Try Me One More Time
TTITLE5=Kenny Rogers - A Stranger In My Place
TTITLE6=Jim Reeves - The Wind Up
TTITLE7=Charley Pride - Crystal Chandeliers
TTITLE8=Buck Owens - That Ain't Right
TTITLE9=Willie Nelson - Home Is Where You're Happy
TTITLE10=Bill Monroe - The Girl In The Blue Velvet Band
TTITLE11=Roger Miller - When Two Worlds Collide
TTITLE12=Hank Locklin - From Here To There To You
TTITLE13=Tom Jones - Middle Age Crazy
TTITLE14=Waylon Jennings - Burning Memories
TTITLE15=Tennessee Ernie Ford - Cry of The Wild Goose
TTITLE16=Johnny Cash - Come In Stranger
TTITLE17=Eddy Arnold - Many Tears Ago
EXTD=
EXTT0=
EXTT1=
EXTT2=
EXTT3=
EXTT4=
EXTT5=
EXTT6=
EXTT7=
EXTT8=
EXTT9=
EXTT10=
EXTT11=
EXTT12=
EXTT13=
EXTT14=
EXTT15=
EXTT16=
EXTT17=
PLAYORDER=
